<svg width="22" height="24" viewBox="0 0 22 24" fill="none" xmlns="http://www.w3.org/2000/svg">
<path d="M20.2116 0.0693868L6.46293 4.49861C6.18384 4.59425 5.93999 4.78449 5.76682 5.0417C5.59364 5.29889 5.50018 5.60964 5.5 5.92877V18.1824C5.04975 18.0632 4.58832 18.0015 4.125 17.9986C1.84766 17.9986 0 19.3421 0 20.9986C0 22.6552 1.84766 23.9986 4.125 23.9986C6.40234 23.9986 8.25 22.6552 8.25 20.9986V10.0449L19.25 6.52924V15.1828C18.7998 15.0632 18.3383 15.0014 17.875 14.9986C15.5977 14.9986 13.75 16.3421 13.75 17.9986C13.75 19.6552 15.5977 20.9986 17.875 20.9986C20.1523 20.9986 22 19.6557 22 17.9986V1.49861C21.9998 1.26313 21.9488 1.031 21.8511 0.821028C21.7534 0.611052 21.6117 0.429121 21.4376 0.289959C21.2635 0.150797 21.0617 0.0583134 20.8488 0.0199938C20.6358 -0.0183257 20.4175 -0.00140488 20.2116 0.0693868Z" fill="#34A7FB" fill-opacity="0.76"/>
</svg>
